<?xml version="1.0" encoding="iso-8859-1"?>
<!-- Generator: Adobe Illustrator 19.0.0, SVG Export Plug-In . SVG Version: 6.00 Build 0)  -->
<svg xmlns="http://www.w3.org/2000/svg" xmlns:xlink="http://www.w3.org/1999/xlink" version="1.1" id="Layer_1" x="0px" y="0px" viewBox="0 0 512.058 512.058" style="enable-background:new 0 0 512.058 512.058;" xml:space="preserve" width="512" height="512">
<g>
	<path style="fill:#8EDB5A;" d="M197.933,57.51c-7.09-0.908-14.312-0.703-21.431,0.469C158.514,27.466,120.648,13.11,86.254,25.62   c-18.823,6.855-34.853,20.625-43.319,38.789c-6.504,13.931-8.54,29.15-6.035,43.989c-12.979,7.632-23.335,19.984-29.839,33.915   c-8.467,18.149-9.346,38.525-2.49,57.349c3.853,10.576,9.976,19.951,18.003,27.7C6.548,251.019,2.388,281.356,12.29,308.573   c8.936,24.551,27.671,43.491,52.002,52.881C103.052,451.234,171.156,512,231.244,512c5.083,0,10.107-0.425,15.059-1.289   L197.933,57.51z"/>
	<path style="fill:#5DC379;" d="M504.998,142.313c-6.504-13.931-16.86-26.283-29.839-33.915c2.505-14.839,0.469-30.059-6.035-43.989   c-8.467-18.164-24.496-31.934-43.319-38.789c-34.424-12.568-72.261,1.846-90.249,32.358c-7.09-1.172-14.297-1.362-21.431-0.469   l-48.369,453.201c4.951,0.864,9.976,1.289,15.059,1.289c60.088,0,128.192-60.78,166.952-150.546   c24.331-9.39,43.066-28.33,52.002-52.881c9.902-27.217,5.742-57.554-10.283-81.211c8.027-7.749,14.15-17.124,18.003-27.715   C514.344,180.839,513.465,160.463,504.998,142.313z"/>
	<path style="fill:#C3EA21;" d="M421.029,241.029c0,26.1-11.1,50.4-30.901,67.5c-5.999,107.699-55.8,190.6-119.099,202l-15-30   l-15,30c-63.3-11.4-113.101-94.301-119.099-202c-19.801-17.1-30.901-41.4-30.901-67.5c0-29.101,14.399-56.1,37.5-72.9   c-5.099-9.901-7.5-20.7-7.5-32.1c0-36.599,26.4-68.2,61.199-74.801c6.601-34.799,37.202-61.199,73.801-61.199   s67.2,26.4,73.801,61.199c34.799,6.601,61.199,38.202,61.199,74.801c0,11.4-2.401,22.2-7.5,32.1   C406.63,184.929,421.029,211.928,421.029,241.029z"/>
	<path style="fill:#8EDB5A;" d="M421.029,241.029c0,26.1-11.1,50.4-30.901,67.5c-5.999,107.699-55.8,190.6-119.099,202l-15-30V0.029   c36.599,0,67.2,26.4,73.801,61.199c34.799,6.601,61.199,38.202,61.199,74.801c0,11.4-2.401,22.2-7.5,32.1   C406.63,184.929,421.029,211.928,421.029,241.029z"/>
	<path style="fill:#8EDB5A;" d="M356.528,266.528l-85.499,85.8V510.53c-4.799,0.899-9.901,1.5-15,1.5s-10.201-0.601-15-1.5V352.328   l-85.499-85.8l20.999-21l64.501,64.2v-47.401l-55.499-55.8l20.999-21l34.501,34.2v-47.401l-25.499-25.8l20.999-21l19.501,19.2   l19.501-19.2l20.999,21l-25.499,25.8v47.401l34.501-34.2l20.999,21l-55.499,55.8v47.401l64.501-64.2L356.528,266.528z"/>
	<path style="fill:#5DC379;" d="M356.528,266.528l-85.499,85.8V510.53c-4.799,0.899-9.901,1.5-15,1.5V144.728l19.501-19.2l20.999,21   l-25.499,25.8v47.401l34.501-34.2l20.999,21l-55.499,55.8v47.401l64.501-64.2L356.528,266.528z"/>
</g>















</svg>
